<svg xmlns="http://www.w3.org/2000/svg" viewBox="0 0 908 668"><defs><style>.cls-1{fill:#70706d;}.cls-2,.cls-3,.cls-9{fill:#fff;}.cls-2{stroke:#b8b8b8;}.cls-19,.cls-2,.cls-20,.cls-21,.cls-22,.cls-23,.cls-3{stroke-miterlimit:10;}.cls-2,.cls-22,.cls-23,.cls-3{stroke-width:3px;}.cls-3{stroke:#a3a3a3;}.cls-22,.cls-23,.cls-4{fill:#9ea098;}.cls-5{fill:#630;}.cls-6{fill:#c9bdbd;}.cls-7{fill:#ccc;}.cls-8{opacity:0.72;}.cls-10{fill:#f9f95f;}.cls-11{fill:#2efcff;}.cls-12{fill:#00ff20;}.cls-13{fill:#e700e6;}.cls-14{fill:#e70017;}.cls-15{fill:#2100e7;}.cls-16{fill:#592d1e;}.cls-17{fill:#afa7a5;}.cls-18{fill:#918987;}.cls-19{fill:#7d7979;}.cls-19,.cls-20,.cls-23{stroke:#000;}.cls-20{fill:#6d6a6a;}.cls-21{fill:#4e4c4c;stroke:#3a3a3a;}.cls-22{stroke:#630;}.cls-24{fill:#464743;}</style></defs><g id="tv"><ellipse class="cls-1" cx="450.86" cy="628.22" rx="427.46" ry="18.38"/><polygon class="cls-2" points="395.9 106.68 518.82 225.56 513.55 225.46 395.9 106.68"/><path class="cls-3" d="M397.82,105.73l-2.62,2.76a.2.2,0,0,1-.31,0l-1.74-1.83a.25.25,0,0,1,0-.34l2.62-2.77a.22.22,0,0,1,.32,0l1.73,1.84A.25.25,0,0,1,397.82,105.73Z"/><polygon class="cls-2" points="620.65 35.53 528.08 227.86 519.92 227.78 620.65 35.53"/><path class="cls-3" d="M622.22,38l-3.72-3.14a.34.34,0,0,1-.09-.43l1.5-2.71a.22.22,0,0,1,.36-.06L624,34.81a.36.36,0,0,1,.09.44L622.58,38A.22.22,0,0,1,622.22,38Z"/><rect class="cls-4" x="183.66" y="227.23" width="554.6" height="374.19" rx="62.69"/><path class="cls-5" d="M675.58,228.73a61.26,61.26,0,0,1,61.18,61.19V538.73a61.26,61.26,0,0,1-61.18,61.19H246.35a61.26,61.26,0,0,1-61.19-61.19V289.92a61.26,61.26,0,0,1,61.19-61.19H675.58m0-3H246.35a64.19,64.19,0,0,0-64.19,64.19V538.73a64.19,64.19,0,0,0,64.19,64.19H675.58a64.18,64.18,0,0,0,64.18-64.19V289.92a64.18,64.18,0,0,0-64.18-64.19Z"/><path class="cls-6" d="M450.79,238.54c-104.15,0-192.82-.92-211.13-2.1,18.3-1.19,106.86-2.1,210.86-2.1s192.6.91,210.87,2.1C643.13,237.62,554.67,238.54,450.79,238.54Z"/><path class="cls-7" d="M450.52,234.84c96.85,0,167.9.73,198.12,1.6-30.19.87-101.14,1.6-197.85,1.6-97,0-168.1-.74-198.35-1.6,30.23-.87,101.26-1.6,198.08-1.6m0-1C332.05,233.84,236,235,236,236.44s96.31,2.6,214.79,2.6,214.26-1.17,214.26-2.6-96-2.6-214.53-2.6Z"/><g class="cls-8"><path class="cls-7" d="M584.67,280.48a16.46,16.46,0,0,1,16.44,16.44V541.21a16.47,16.47,0,0,1-16.44,16.44H234.19a16.47,16.47,0,0,1-16.44-16.44V296.92a16.46,16.46,0,0,1,16.44-16.44H584.67m0-16H234.19a32.44,32.44,0,0,0-32.44,32.44V541.21a32.45,32.45,0,0,0,32.44,32.44H584.67a32.45,32.45,0,0,0,32.44-32.44V296.92a32.44,32.44,0,0,0-32.44-32.44Z"/></g><path class="cls-9" d="M278.38,293.89c-2.43-.64-20.18-5-33.07,5.12a34.06,34.06,0,0,0-8.55,10.25,31.44,31.44,0,0,0-3.42,15.95c.13,103.2,0,176.47-.57,186.22a32.91,32.91,0,0,0,.57,8.55,31,31,0,0,0,8,15.94c1.81,1.88,7.36,7.16,15.39,8.54,2.36.41,5.38.46,11.41.57,3.09.06,5.65,0,7.41,0"/><rect class="cls-10" x="274.96" y="292.75" width="53.03" height="252.85"/><rect class="cls-11" x="327.99" y="292.75" width="53.03" height="252.85"/><rect class="cls-12" x="381.02" y="292.75" width="53.03" height="252.85"/><rect class="cls-13" x="431.76" y="292.75" width="53.03" height="252.85"/><path class="cls-14" d="M541.84,293.13h-.26a5.1,5.1,0,0,1-2-.39H484.79V545.6h57.59V293.2h0A3.19,3.19,0,0,1,541.84,293.13Z"/><path class="cls-15" d="M583.43,511.21c-.59-9.76-.7-83-.57-186.23A31.3,31.3,0,0,0,579.44,309a33.64,33.64,0,0,0-8.55-10.25c-6.55-5.15-14.35-6.55-20.76-6.59a4.68,4.68,0,0,1-3.13,1.09,5.07,5.07,0,0,1-1.21-.15h-.17a5.17,5.17,0,0,1-.89.08l-.18,0-.26,0a1.46,1.46,0,0,1-.22,0,3.25,3.25,0,0,1-.44,0h-.51l-.19,0h-.1l-.22,0h0a6,6,0,0,1-.75-.06l-.15,0h-.12a5.39,5.39,0,0,1-1-.09c-1.34.26-2.32.49-2.76.61l2.85,251.15c1.76,0,4.32.05,7.41,0,6-.11,9-.17,11.41-.57,8-1.39,13.58-6.66,15.39-8.55a31,31,0,0,0,8-15.94A32.84,32.84,0,0,0,583.43,511.21Z"/><rect class="cls-16" x="630.25" y="246.82" width="97.76" height="338.65" rx="36.74"/><rect class="cls-17" x="637.13" y="254.98" width="82.07" height="192.15" rx="21.78"/><ellipse class="cls-18" cx="677.91" cy="297.9" rx="34.96" ry="37.08"/><ellipse class="cls-18" cx="678.07" cy="404.45" rx="35.55" ry="37.7"/><ellipse class="cls-19" cx="677.91" cy="297.9" rx="28.39" ry="30.1"/><ellipse class="cls-20" cx="678.07" cy="404.45" rx="28.86" ry="30.61"/><path class="cls-21" d="M664.92,271.22a31.12,31.12,0,0,0-14.44,35.35c4.38,14.94,20.29,24.15,35.68,19.36Z"/><path class="cls-21" d="M691.37,324.24l-5,2.11a2.24,2.24,0,0,1-3-1.36l-18.92-50.72a2.46,2.46,0,0,1,1.28-3.14l5-2.11a2.23,2.23,0,0,1,3,1.36l18.93,50.72A2.47,2.47,0,0,1,691.37,324.24Z"/><path class="cls-21" d="M652.35,390c-6.43,13.73-2.94,30.24,7.56,38.93,11.88,9.82,30.14,7.52,40.22-6.26Z"/><path class="cls-21" d="M703.36,418.23l-2.67,4.41a2.49,2.49,0,0,1-3.62.82L653.9,393a3,3,0,0,1-.77-3.91l2.67-4.41a2.5,2.5,0,0,1,3.62-.83l43.17,30.42A3,3,0,0,1,703.36,418.23Z"/><ellipse class="cls-22" cx="652.51" cy="467.39" rx="9.4" ry="9.97"/><ellipse class="cls-22" cx="702.45" cy="467.39" rx="9.4" ry="9.97"/><rect class="cls-23" x="642" y="486.69" width="72.2" height="3.55"/><rect class="cls-23" x="642" y="492.01" width="72.2" height="3.55"/><rect class="cls-23" x="642" y="497.34" width="72.2" height="3.55"/><rect class="cls-23" x="642" y="502.66" width="72.2" height="3.55"/><rect class="cls-23" x="642" y="507.98" width="72.2" height="3.55"/><rect class="cls-23" x="642" y="513.31" width="72.2" height="3.55"/><rect class="cls-23" x="642" y="518.63" width="72.2" height="3.55"/><rect class="cls-23" x="642" y="522.77" width="72.2" height="3.55"/><rect class="cls-23" x="642" y="527.51" width="72.2" height="3.55"/><rect class="cls-23" x="642" y="532.83" width="72.2" height="3.55"/><rect class="cls-23" x="642" y="538.15" width="72.2" height="3.55"/><rect class="cls-23" x="642" y="543.48" width="72.2" height="3.55"/><rect class="cls-23" x="642" y="548.8" width="72.2" height="3.55"/><rect class="cls-23" x="642" y="554.13" width="72.2" height="3.55"/><rect class="cls-23" x="642" y="559.45" width="72.2" height="3.55"/><polygon class="cls-24" points="272.72 600.58 284.99 618.65 331.61 618.65 348.03 600.58 272.72 600.58"/><polygon class="cls-24" points="579.53 600.58 591.8 618.65 638.42 618.65 654.84 600.58 579.53 600.58"/></g></svg>